<?xml version="1.0" encoding="UTF-8"?>
<svg id="Layer_1" data-name="Layer 1" xmlns="http://www.w3.org/2000/svg" viewBox="0 0 400 400">
  <defs>
    <style>
      .cls-1 {
        fill: #86efac;
      }

      .cls-2 {
        isolation: isolate;
      }

      .cls-3 {
        fill: #06b6d4;
      }

      .cls-4 {
        fill: #fff;
      }

      .cls-5 {
        fill: #22c55e;
      }

      .cls-6 {
        fill: #14532d;
      }
    </style>
  </defs>
  <path class="cls-1" d="M240-42.8c78.35,1,78.4,1.85,125.7,62.55,47.65,61.1,44.15,56.2,28.6,135.45-16.4,83.85-11.75,98.1-78.85,121.4-82.55,28.65-23.05-3.9-126.8-49.95-110.95-49.25-98.15,25.3-131.85-64.85C26.75,81.2,39.95,94.95,110.2,16.5c78.2-87.35,20.7-60.7,129.8-59.3Z"/>
  <path class="cls-5" d="M132,34.75c98.85,1.05,100.95-30.6,150.5,38.35,47.15,65.7,49.35,104.45,3.1,175.6-50,77-61.15,61.65-153.6,56.1-114.8-6.95-60.1,24.05-124.55-72.9-64-96.35-82.6-81.15-31.55-162C17.95,3.35,28.5,33.65,132,34.75Z"/>
  <path class="cls-3" d="M208,147.1c60.7-.35,34.75-4.8,84.7,40.2,48.6,43.75,58.3,29.7,53.95,84.7-4.25,54-18.65,36.7-66.35,72.3-46.25,34.45-10.15,17.15-72.3,31.1-72.85,16.35-62.5,51.15-114.1,10.7-41.25-32.3-27.4-52.25-17.9-114.1,11.45-74.8-1.65-36.55,48.25-83.75,54.95-52,13.6-40.75,83.75-41.15h0Z"/>
  <path class="cls-6" d="M192,69.25c61.75-3.65,73.15-10.6,106.25,34,32.3,43.6,13.15,43.75-.3,108.95-18.7,90.65,22.85,69.9-43.85,104.75-64.9,33.95-32.2,18-113.3-22.6-81.55-40.85-66.25-1.25-83-75.7-16-71.15-10.55-44.4,42.7-103.65,55.65-62,9.45-40.9,91.5-45.75h0Z"/>
  <g class="cls-2">
    <path class="cls-4" d="M202.31,259.02c-9.76,0-18.14-1.64-25.14-4.93-7-3.29-12.46-7.9-16.39-13.84-3.92-5.94-6.15-12.94-6.68-21l24.34-1.11c.64,4.45,1.94,8.25,3.9,11.37,1.96,3.13,4.61,5.49,7.95,7.08,3.34,1.59,7.45,2.39,12.33,2.39,4.03,0,7.45-.48,10.26-1.43,2.81-.95,4.96-2.41,6.44-4.37,1.48-1.96,2.23-4.37,2.23-7.24,0-2.65-.64-4.96-1.91-6.92-1.27-1.96-3.71-3.76-7.32-5.41-3.61-1.64-8.91-3.26-15.91-4.85-9.65-2.23-17.42-4.72-23.31-7.48-5.89-2.76-10.15-6.23-12.81-10.42-2.65-4.19-3.98-9.47-3.98-15.83,0-6.79,1.67-12.73,5.01-17.82,3.34-5.09,8.19-9.07,14.56-11.93,6.36-2.86,13.95-4.3,22.75-4.3,9.33,0,17.23,1.64,23.7,4.93s11.53,7.8,15.19,13.52c3.66,5.73,5.86,12.3,6.6,19.73l-24.18,1.27c-.32-3.92-1.38-7.34-3.18-10.26-1.8-2.92-4.24-5.17-7.32-6.76-3.08-1.59-6.79-2.39-11.14-2.39-5.51,0-9.84,1.22-12.97,3.66-3.13,2.44-4.69,5.62-4.69,9.54,0,2.76.72,5.06,2.15,6.92,1.43,1.86,3.82,3.47,7.16,4.85s8.09,2.7,14.24,3.98c10.5,2.12,18.8,4.8,24.9,8.03,6.1,3.23,10.42,7.08,12.97,11.53,2.55,4.45,3.82,9.54,3.82,15.27,0,7-1.78,13.07-5.33,18.22-3.55,5.14-8.59,9.09-15.11,11.85-6.52,2.76-14.24,4.14-23.15,4.14h0Z"/>
  </g>
</svg>